<svg width="460" height="400" viewBox="0 0 460 400" fill="none" xmlns="http://www.w3.org/2000/svg">
<path d="M268.902 198.382C268.902 198.382 249.754 236.69 230.302 263.132C222.562 273.658 214.776 282.3 208.128 285.906C201.622 289.434 196.114 294.914 191.557 300.988C179.753 316.714 174.306 336.402 174.306 336.402L124.566 261.152C124.566 261.152 126.264 187.596 132.236 175.292C140.94 157.36 145.144 121.132 148.488 113.92C150.969 108.57 158.053 80.9324 158.732 78.9004C159.027 78.0264 161.385 76.6844 164.446 76.6864C166.902 76.6864 171.073 79.0604 172.125 83.9404C177.444 108.6 171.041 124.868 171.114 125.59C172.99 144.544 167.35 158.614 171.305 162.338C171.453 162.476 171.726 162.412 172.113 162.164C178.97 157.762 221.528 95.7164 226.77 94.3764C232.306 92.9644 268.902 198.382 268.902 198.382" fill="#FFB27D"/>
<path d="M189.269 321.509C189.269 321.509 188.592 354.947 186.653 399.985H61.1899C89.8685 338.829 114.801 287.357 114.801 287.357C114.801 287.357 186.238 289.539 189.269 321.509" fill="#6EA239"/>
<path d="M312.39 68.7339L296.986 91.3139L281.872 113.474C280.95 114.586 279.884 114.972 278.73 114.862C275.102 114.518 270.616 109.286 267.118 106.39L266.764 106.098C262.152 102.284 261.5 95.3899 265.314 90.7799L288.416 62.8539V62.8519L295.268 54.5699C299.084 49.9579 305.978 49.3059 310.586 53.1219L310.942 53.4139C315.554 57.2279 316.204 64.1219 312.39 68.7339" fill="#FFB27D"/>
<path d="M296.986 91.3139L281.872 113.474C280.95 114.586 279.884 114.972 278.73 114.862L288.416 62.8539C288.438 63.1459 290.084 86.4799 296.986 91.3139" fill="#EFA26F"/>
<path d="M230.302 263.132C222.562 273.658 214.776 282.3 208.128 285.906C201.622 289.434 196.115 294.914 191.557 300.988C186.315 298.544 180.339 295.678 174.498 292.838C167.386 289.382 167.113 279.282 174.079 275.54C174.147 275.504 174.214 275.466 174.279 275.428C180.807 271.694 187.497 258.504 187.497 258.504L230.302 263.132Z" fill="#EFA26F"/>
<path d="M158.386 80.0442L154.356 96.3162C154.356 96.3162 157.879 97.7562 160.142 96.6382C162.404 95.5182 164.25 80.9202 158.386 80.0442" fill="#FFC197"/>
<path d="M274.284 270.82H187.624C179.1 270.82 172.125 263.846 172.125 255.322V64.8383C172.125 56.3143 179.1 49.3383 187.624 49.3383H274.284C282.808 49.3383 289.782 56.3143 289.782 64.8383V255.322C289.782 263.846 282.808 270.82 274.284 270.82Z" fill="#2B478B"/>
<path d="M283.952 66.3037V252.374C283.952 258.686 278.824 263.85 272.56 263.85H189.348C183.083 263.85 177.958 258.686 177.958 252.374V66.3037C177.958 59.9917 183.083 54.8277 189.348 54.8277H272.56C278.824 54.8277 283.952 59.9917 283.952 66.3037Z" fill="#C0D8FB"/>
<path d="M272.56 54.8277L190.377 263.85H189.348C183.083 263.85 177.958 258.686 177.958 252.374V66.3037C177.958 59.9917 183.083 54.8277 189.348 54.8277H272.56Z" fill="#CBE1FD"/>
<path d="M248.344 61.748H213.566C210.732 61.748 208.416 59.4301 208.416 56.5981V55.7881C208.416 52.9541 210.732 50.6381 213.566 50.6381H248.344C251.176 50.6381 253.494 52.9541 253.494 55.7881V56.5981C253.494 59.4301 251.176 61.748 248.344 61.748Z" fill="#2B478B"/>
<path d="M304.722 154.006L302.426 154.878L286.98 160.748C286.618 160.886 286.25 161.004 285.884 161.096C280.77 162.424 275.328 159.698 273.41 154.652L273.184 154.058C271.128 148.65 273.872 142.542 279.28 140.486L293.68 135.016L294.726 134.616L297.024 133.744C302.432 131.688 308.538 134.432 310.592 139.842L310.82 140.434C312.874 145.844 310.132 151.95 304.722 154.006" fill="#FFB27D"/>
<path d="M292.178 154.36C289.602 155.338 284.934 157.07 282.438 157.43C281.732 157.53 280.43 157.146 279.216 155.816C278.488 155.02 277.792 153.886 277.274 152.314C277.032 151.574 276.832 150.836 276.746 150.078C276.65 149.188 276.676 148.298 276.832 147.418C276.972 146.624 277.514 145.902 278.304 145.52C278.308 145.518 278.314 145.518 278.316 145.514C280.97 144.246 284.548 142.702 287.684 141.842C289.852 141.242 292.046 142.2 292.732 144.098L293.056 144.984L294.714 149.524C295.4 151.41 294.284 153.566 292.178 154.36" fill="#FFD3B6"/>
<path d="M292.178 154.36C289.602 155.338 284.934 157.07 282.438 157.43C281.732 157.53 280.43 157.146 279.216 155.816C279.088 155.514 278.968 155.196 278.856 154.854C278.612 154.114 278.412 153.378 278.328 152.618C278.232 151.728 278.258 150.84 278.412 149.958C278.554 149.166 279.096 148.442 279.886 148.062C279.888 148.058 279.894 148.058 279.898 148.056C282.552 146.788 286.128 145.244 289.266 144.382C290.654 143.998 292.052 144.252 293.056 144.984L294.714 149.524C295.4 151.41 294.284 153.566 292.178 154.36" fill="#FFC197"/>
<path d="M297.714 175.722L285.802 178.964C282.182 179.95 278.416 177.794 277.43 174.176L277.062 172.826C276.078 169.208 278.232 165.44 281.852 164.454L293.764 161.212C297.382 160.226 301.15 162.382 302.136 166.002L302.502 167.35C303.488 170.968 301.332 174.736 297.714 175.722Z" fill="#FFB27D"/>
<path d="M291.272 175.138C289.084 175.722 285.13 176.752 283.056 176.864C282.302 176.908 280.792 176.27 279.808 174.288C279.564 173.808 279.358 173.252 279.198 172.608C279.054 172.022 278.942 171.444 278.932 170.856C278.918 170.166 279.006 169.484 279.198 168.818C279.37 168.218 279.87 167.698 280.544 167.458C280.55 167.454 280.552 167.454 280.556 167.452C282.826 166.65 285.874 165.692 288.512 165.232C290.332 164.914 292.06 165.788 292.486 167.292L292.794 168.364L293.712 171.586C294.136 173.076 293.06 174.662 291.272 175.138" fill="#FFD3B6"/>
<path d="M291.272 175.138C289.084 175.722 285.13 176.752 283.056 176.864C282.302 176.908 280.792 176.27 279.808 174.288C279.674 173.742 279.578 173.198 279.566 172.644C279.552 171.956 279.64 171.272 279.832 170.606C280.004 170.008 280.504 169.484 281.18 169.244C281.184 169.242 281.188 169.242 281.19 169.24C283.46 168.438 286.51 167.48 289.146 167.022C290.654 166.758 292.1 167.314 292.794 168.364L293.712 171.586C294.136 173.076 293.06 174.662 291.272 175.138" fill="#FFC197"/>
<path d="M102.587 312.728C102.587 312.728 127.104 336.21 143.632 345.276L156.145 336.4V349.494C156.145 349.494 180.756 353.846 188.518 349.494V313.788L119.395 279.136L102.587 312.728Z" fill="#629232"/>
<path d="M193.74 346.652C184.218 348.606 163.696 341.126 163.696 341.126L167.006 309.154L143.815 335.712C132.013 331.32 113.555 319.86 102.588 312.728C97.1276 309.176 93.5234 306.698 93.5234 306.698C108.999 281.794 124.567 258.502 124.567 258.502C129.136 267.644 139.95 275.58 151.674 281.93C171.155 292.482 193.145 298.646 193.145 298.646C193.139 317.648 193.74 346.652 193.74 346.652" fill="#DCEAFF"/>
<path d="M304.346 131.178C304.262 131.208 304.176 131.238 304.09 131.266L288.474 135.274C281.608 137.038 274.506 133.324 272.694 127.018L271.766 123.788C270.024 117.736 273.766 111.406 280.148 109.354L285.304 108.03L295.764 105.344C302.63 103.58 309.73 107.296 311.542 113.6L312.472 116.83C314.188 122.802 310.568 129.038 304.346 131.178" fill="#FFB27D"/>
<path d="M297.19 126.818L289.604 130.238C289.592 130.24 289.578 130.244 289.556 130.248C289.252 130.33 288.944 130.392 288.638 130.438C288.512 130.458 288.382 130.472 288.254 130.486C288.2 130.492 288.148 130.492 288.094 130.488C287.258 130.46 286.684 129.574 287.046 128.784C287.764 127.222 287.958 125.416 287.476 123.64L287.294 122.978C287.294 122.974 287.292 122.964 287.288 122.958L286.702 120.804C286.236 119.088 285.244 117.652 283.952 116.612C283.796 116.486 283.636 116.366 283.472 116.254C281.972 115.214 282.354 112.862 284.11 112.374C284.126 112.368 284.14 112.366 284.158 112.36L292.484 111.102C294.542 110.542 296.524 112.126 297.086 114.184L297.754 116.638L299.178 121.87C299.736 123.93 299.248 126.26 297.19 126.818" fill="#FFD3B6"/>
<path d="M297.19 126.818L289.604 130.238C289.592 130.24 289.578 130.244 289.556 130.248C289.378 130.282 288.822 130.376 288.094 130.488C287.258 130.46 286.684 129.574 287.046 128.784C287.764 127.222 287.958 125.416 287.476 123.64L287.294 122.978C287.294 122.974 287.292 122.964 287.288 122.958L286.702 120.804C286.236 119.088 285.244 117.652 283.952 116.612C284.22 116.22 284.62 115.91 285.146 115.762C285.16 115.756 285.176 115.754 285.194 115.748L293.52 114.488C295.254 114.018 296.93 115.068 297.754 116.638L299.178 121.87C299.736 123.93 299.248 126.26 297.19 126.818" fill="#FFC197"/>
<path d="M172.125 212.404C172.125 212.404 168.718 182.666 165.575 176.868C162.432 171.068 159.772 159.454 164.608 150.826C169.444 142.194 171.114 125.59 171.114 125.59C172.991 144.544 167.35 158.614 171.305 162.338C171.453 162.476 171.726 162.412 172.113 162.164L172.125 212.404" fill="#EFA26F"/>
<path d="M129.905 163.968H248.216C252.324 163.968 255.654 160.638 255.654 156.532V109.148C255.654 105.04 252.324 101.71 248.216 101.71H129.905C125.797 101.71 122.468 105.04 122.468 109.148V156.532C122.468 160.638 125.797 163.968 129.905 163.968" fill="#699DEE"/>
<path d="M249.046 93.8262H202.736C199.301 93.8262 196.516 91.0402 196.516 87.6042V78.8222C196.516 75.3862 199.301 72.6022 202.736 72.6022H249.046C252.482 72.6022 255.266 75.3862 255.266 78.8222V87.6042C255.266 91.0402 252.482 93.8262 249.046 93.8262Z" fill="#9ABFF6"/>
<path d="M247.014 249.44H193.626C189.512 249.44 186.177 246.104 186.177 241.99V230.704C186.177 226.59 189.512 223.256 193.626 223.256H247.014C251.13 223.256 254.464 226.59 254.464 230.704V241.99C254.464 246.104 251.13 249.44 247.014 249.44" fill="#9ABFF6"/>
<path d="M267.766 212.404H217.328C212.398 212.404 208.402 208.408 208.402 203.48V183.744C208.402 178.814 212.398 174.818 217.328 174.818H267.766C272.694 174.818 276.69 178.814 276.69 183.744V203.48C276.69 208.408 272.694 212.404 267.766 212.404Z" fill="#6EA239"/>
<path d="M410.362 400H318.35C313.938 397.042 291.024 381.412 281.542 369.76C279.534 367.29 272.184 346.01 266.536 328.732C263.01 317.94 260.146 308.704 259.662 306.586C259.494 305.848 259.382 304.386 259.314 302.406V302.386C259.074 295.32 259.402 281.694 259.74 270.87L259.742 270.82L259.748 270.678C259.764 270.202 259.778 269.734 259.794 269.27V269.254C259.796 269.208 259.796 269.16 259.798 269.114C259.86 267.234 259.92 265.462 259.976 263.85C260.118 259.822 260.238 256.792 260.288 255.606L260.308 255.054C260.308 255.054 260.31 255.054 260.312 255.052C260.458 254.97 264.884 252.608 270.8 256.87C272.228 257.9 273.548 260.388 274.752 263.634C275.522 265.706 276.244 268.086 276.916 270.594C279.5 280.24 281.354 291.772 282.344 294.86C283.94 299.85 302.752 321.794 303.928 323.158C303.946 323.182 303.966 323.204 303.984 323.226V288.572L289.782 250.572L283.952 234.972L281.022 227.132C281.022 227.132 276.528 219.754 272.758 210.878C271.108 206.994 269.596 202.824 268.66 198.86C268.436 197.916 268.246 196.982 268.094 196.068C268.094 196.066 268.094 196.066 268.094 196.064C267.54 192.714 267.502 189.606 268.272 187.076C269.646 182.57 272.742 181.722 275.12 181.814C275.366 181.822 275.604 181.844 275.834 181.87C276.066 181.898 276.296 181.942 276.518 182.002C276.936 182.112 277.332 182.28 277.7 182.494C277.704 182.494 277.704 182.496 277.706 182.498C278.316 182.854 278.842 183.344 279.25 183.942C279.25 183.942 281.258 186.564 283.952 190.088C285.724 192.408 287.794 195.118 289.782 197.73C293.322 202.384 296.61 206.726 297.514 207.998C302.4 214.876 315.556 237.29 315.556 237.29L330.956 237.936C333.396 238.038 335.718 239.01 337.502 240.676C342.978 245.79 354.784 256.856 356.232 258.502C356.232 259.042 365.406 263.454 372.494 267.382C377.564 269.524 387.194 277.116 387.194 277.116C389.19 278.878 390.71 280.632 391.48 282.308C394.782 289.494 403.738 351.992 408.02 382.888C409.398 392.82 410.292 399.486 410.362 400Z" fill="#FFB27D"/>
<path d="M315.556 237.29C315.556 237.29 329.822 260.578 331.71 261.626C333.6 262.676 340.942 264.144 341.782 261.626C342.62 259.108 315.556 237.29 315.556 237.29Z" fill="#EFA26F"/>
<path d="M387.266 277.18C387.242 277.158 387.218 277.138 387.194 277.116C387.194 277.116 377.564 269.524 372.494 267.382C365.986 263.774 357.722 259.762 356.412 258.71C357.922 260.438 368.546 272.462 372.636 273.362C376.226 274.154 384.38 276.384 387.266 277.18" fill="#EFA26F"/>
<path d="M303.984 323.226V288.572C303.984 288.572 312.216 302.342 312.846 309.896C313.476 317.446 309.426 329.674 303.984 323.226Z" fill="#EFA26F"/>
<path d="M274.114 196.058C272.91 193.994 270.754 190.252 270.012 188.158C269.804 187.566 269.83 186.382 270.558 185.12C270.992 184.362 271.68 183.578 272.718 182.878C273.206 182.548 273.7 182.256 274.234 182.06C274.858 181.834 275.506 181.712 276.174 181.702C276.776 181.696 277.402 182.046 277.832 182.666C277.834 182.668 277.834 182.672 277.838 182.674C279.266 184.756 281.074 187.59 282.304 190.156C283.154 191.928 282.886 193.974 281.646 194.872L281.066 195.296L278.102 197.46C276.87 198.358 275.094 197.746 274.114 196.058" fill="#FFD3B6"/>
<path d="M274.114 196.058C272.91 193.994 270.754 190.252 270.012 188.158C269.804 187.566 269.83 186.382 270.558 185.12C270.75 184.958 270.958 184.804 271.184 184.652C271.672 184.322 272.166 184.03 272.7 183.834C273.326 183.608 273.974 183.486 274.64 183.476C275.242 183.47 275.87 183.82 276.298 184.44C276.3 184.442 276.302 184.446 276.304 184.448C277.734 186.532 279.542 189.366 280.77 191.93C281.316 193.066 281.402 194.312 281.066 195.296L278.102 197.46C276.87 198.358 275.094 197.746 274.114 196.058" fill="#FFC197"/>
<path d="M354.466 107.234H335.178C330.104 107.234 325.952 103.082 325.952 98.0084V82.1204C325.952 77.0464 330.104 72.8964 335.178 72.8964H354.466C359.54 72.8964 363.69 77.0464 363.69 82.1204V98.0084C363.69 103.082 359.54 107.234 354.466 107.234Z" fill="#DFEBFD"/>
<path d="M334.792 89.7838C335.84 92.5458 344.826 99.8018 344.826 99.8018C344.826 99.8018 347.756 97.4218 350.468 94.8578C352.498 92.9618 354.396 90.9638 354.846 89.7838C355.91 87.0378 354.778 83.1098 350.852 82.4438C346.94 81.7778 344.826 85.8718 344.826 85.8718C344.826 85.8718 342.714 81.7778 338.786 82.4438C338.104 82.5618 337.504 82.7778 336.988 83.0758C334.542 84.4418 333.926 87.5198 334.792 89.7838" fill="#6EA239"/>
<path d="M44.2897 196.668H102.073C106.679 196.668 110.448 200.436 110.448 205.042V230.392C110.448 234.624 106.986 238.084 102.755 238.084H101.271L104.055 249.844L86.5767 238.084H43.7909C39.1887 238.084 35.4233 234.32 35.4233 229.718V205.534C35.4233 200.658 39.4131 196.668 44.2897 196.668" fill="#DFEBFD"/>
<path d="M42.7391 215.068H102.989C103.81 215.068 104.481 214.396 104.481 213.576C104.481 212.756 103.81 212.084 102.989 212.084H42.7391C41.9187 212.084 41.2471 212.756 41.2471 213.576C41.2471 214.396 41.9187 215.068 42.7391 215.068Z" fill="#CBE1FD"/>
<path d="M42.7391 221.746H102.989C103.81 221.746 104.481 221.076 104.481 220.254C104.481 219.434 103.81 218.762 102.989 218.762H42.7391C41.9187 218.762 41.2471 219.434 41.2471 220.254C41.2471 221.076 41.9187 221.746 42.7391 221.746Z" fill="#CBE1FD"/>
<path d="M42.7391 228.426H102.989C103.81 228.426 104.481 227.754 104.481 226.934C104.481 226.112 103.81 225.442 102.989 225.442H42.7391C41.9187 225.442 41.2471 226.112 41.2471 226.934C41.2471 227.754 41.9187 228.426 42.7391 228.426Z" fill="#CBE1FD"/>
<path d="M75.5638 204.694H101.142C102.119 204.694 102.918 203.896 102.918 202.918C102.918 201.942 102.119 201.142 101.142 201.142H75.5638C74.587 201.142 73.7876 201.942 73.7876 202.918C73.7876 203.896 74.587 204.694 75.5638 204.694Z" fill="#CBE1FD"/>
<path d="M53.583 204.694H68.9738C69.746 204.694 70.3778 204.064 70.3778 203.292V202.546C70.3778 201.774 69.746 201.142 68.9738 201.142H53.583C52.8108 201.142 52.1792 201.774 52.1792 202.546V203.292C52.1792 204.064 52.8108 204.694 53.583 204.694Z" fill="#CBE1FD"/>
<path d="M334.628 209.524L370.972 221.406L349.202 200.188L346.992 205.372L337.636 205.418L334.628 209.524Z" fill="#9EC3F6"/>
<path d="M370.972 221.406L342.766 199.95L312.63 193.066L370.972 221.406Z" fill="white"/>
<path d="M349.202 200.188L370.972 221.406L356.46 191.682L349.202 200.188Z" fill="white"/>
<path d="M120.32 74.1296L86.3496 78.9756L108.893 63.6116L110.039 68.5376L118.3 70.0336L120.32 74.1296" fill="#9EC3F6"/>
<path d="M86.3496 78.9766L114.619 64.4026L142.325 63.0086L86.3496 78.9766Z" fill="white"/>
<path d="M108.893 63.6126L86.3496 78.9766L103.801 54.9626L108.893 63.6126Z" fill="white"/>
<path d="M173.654 130.49C173.654 134.922 172.162 139.004 169.648 142.262C168.814 143.344 167.869 144.334 166.829 145.216C163.465 148.068 159.112 149.788 154.356 149.788C150.034 149.788 146.046 148.37 142.829 145.968C141.411 144.912 140.143 143.664 139.064 142.262C136.55 139.004 135.058 134.922 135.058 130.49C135.058 119.832 143.697 111.192 154.356 111.192C165.015 111.192 173.654 119.832 173.654 130.49" fill="white"/>
<path d="M162.11 139.612C162.058 139.554 162.008 139.5 161.96 139.45C161.738 139.28 161.516 139.174 160.624 139.02C160.17 138.944 159.54 138.854 158.646 138.738C158.646 138.738 158.454 138.716 158.352 138.708C158.284 138.702 158.212 138.696 158.128 138.688C157.872 138.554 157.806 137.492 157.808 136.372C157.808 136.288 157.81 136.204 157.81 136.12C157.814 135.696 157.828 135.278 157.844 134.902C157.844 134.878 157.846 134.856 157.846 134.832C158.398 134.878 158.764 134.874 158.764 134.874C159.792 134.792 160.434 132.036 160.664 129.808C160.664 129.808 161.172 128.586 161.172 127.264C161.172 126.52 161.012 125.746 160.512 125.138C160.252 124.826 160.012 124.62 159.79 124.49C159.726 124.426 159.66 124.368 159.596 124.312C158.64 123.25 154.752 119.27 152.2 121.572C152.134 121.342 151.304 118.758 147.28 119.604C147.53 119.578 149.314 119.41 149.83 120.132C149.76 120.102 148.202 119.41 147.22 120.014C146.766 120.29 146.484 120.864 146.324 121.468C146.322 121.472 146.322 121.476 146.32 121.48C146.32 121.484 146.318 121.486 146.318 121.49V121.492C146.316 121.498 146.314 121.504 146.314 121.51C146.296 121.592 146.276 121.674 146.258 121.756C146.256 121.768 146.252 121.78 146.25 121.794C146.25 121.798 146.248 121.8 146.248 121.804C146.248 121.806 146.248 121.806 146.248 121.808C146.128 122.432 146.128 123.038 146.2 123.332C146.35 123.962 147.46 125.838 148.196 125.838C148.476 125.838 148.772 125.746 149.036 125.632C148.922 125.964 148.82 126.328 148.736 126.724C147.954 130.402 150.398 133.196 151.664 132.504C152.476 132.062 153.09 133.482 153.09 133.482L153.094 133.476C152.974 136.166 152.236 137.922 151.688 138.36C151.492 138.382 151.068 138.434 150.538 138.518V138.516C150.538 138.516 148.672 138.72 147.252 139.338C147.24 139.342 147.23 139.346 147.218 139.352C146.894 139.486 146.618 139.636 146.412 139.8C146.41 139.804 146.408 139.806 146.406 139.806V139.808C146.298 139.892 146.21 139.982 146.146 140.078C146.112 140.118 146.084 140.158 146.062 140.2C145.588 141.104 145.11 142.462 144.652 144.054C147.38 146.09 150.762 147.294 154.428 147.294C158.462 147.294 162.154 145.836 165.006 143.416C163.958 141.232 162.762 140.106 162.11 139.612" fill="#2B478B"/>
<path d="M208.792 120.768H186.869C186.109 120.768 185.487 120.146 185.487 119.386V118.728C185.487 117.968 186.109 117.346 186.869 117.346H208.792C209.552 117.346 210.172 117.968 210.172 118.728V119.386C210.172 120.146 209.552 120.768 208.792 120.768" fill="white"/>
<path d="M209.056 133.074H186.603C185.989 133.074 185.487 132.572 185.487 131.958C185.487 131.344 185.989 130.842 186.603 130.842H209.056C209.67 130.842 210.172 131.344 210.172 131.958C210.172 132.572 209.67 133.074 209.056 133.074Z" fill="white"/>
<path d="M199.116 138.354H186.341C185.871 138.354 185.487 137.97 185.487 137.5V136.978C185.487 136.508 185.871 136.122 186.341 136.122H199.116C199.587 136.122 199.971 136.508 199.971 136.978V137.5C199.971 137.97 199.587 138.354 199.116 138.354Z" fill="white"/>
<path d="M225.152 138.354H204.51C203.92 138.354 203.438 137.872 203.438 137.282V137.194C203.438 136.606 203.92 136.122 204.51 136.122H225.152C225.742 136.122 226.224 136.606 226.224 137.194V137.282C226.224 137.872 225.742 138.354 225.152 138.354Z" fill="white"/>
<path d="M244.44 133.074H214.998C214.384 133.074 213.882 132.572 213.882 131.958C213.882 131.344 214.384 130.842 214.998 130.842H244.44C245.052 130.842 245.556 131.344 245.556 131.958C245.556 132.572 245.052 133.074 244.44 133.074Z" fill="white"/>
<path d="M209.056 143.636H186.603C185.989 143.636 185.487 143.134 185.487 142.52C185.487 141.906 185.989 141.404 186.603 141.404H209.056C209.67 141.404 210.172 141.906 210.172 142.52C210.172 143.134 209.67 143.636 209.056 143.636Z" fill="white"/>
<path d="M244.44 143.636H214.998C214.384 143.636 213.882 143.134 213.882 142.52C213.882 141.906 214.384 141.404 214.998 141.404H244.44C245.052 141.404 245.556 141.906 245.556 142.52C245.556 143.134 245.052 143.636 244.44 143.636Z" fill="white"/>
<path d="M230.158 120.768H214.414C213.764 120.768 213.23 120.236 213.23 119.584V118.53C213.23 117.878 213.764 117.346 214.414 117.346H230.158C230.81 117.346 231.342 117.878 231.342 118.53V119.584C231.342 120.236 230.81 120.768 230.158 120.768Z" fill="white"/>
<path d="M210.308 230.694H194.722C194.182 230.694 193.74 230.252 193.74 229.712V229.244C193.74 228.702 194.182 228.26 194.722 228.26H210.308C210.848 228.26 211.29 228.702 211.29 229.244V229.712C211.29 230.252 210.848 230.694 210.308 230.694" fill="#699DEE"/>
<path d="M210.496 236.926H194.533C194.096 236.926 193.739 236.568 193.739 236.132C193.739 235.696 194.096 235.338 194.533 235.338H210.496C210.932 235.338 211.29 235.696 211.29 236.132C211.29 236.568 210.932 236.926 210.496 236.926Z" fill="#699DEE"/>
<path d="M203.43 240.68H194.347C194.013 240.68 193.739 240.406 193.739 240.072V239.7C193.739 239.366 194.013 239.094 194.347 239.094H203.43C203.764 239.094 204.038 239.366 204.038 239.7V240.072C204.038 240.406 203.764 240.68 203.43 240.68Z" fill="#699DEE"/>
<path d="M221.94 240.68H207.264C206.844 240.68 206.502 240.336 206.502 239.918V239.856C206.502 239.436 206.844 239.094 207.264 239.094H221.94C222.36 239.094 222.702 239.436 222.702 239.856V239.918C222.702 240.336 222.36 240.68 221.94 240.68Z" fill="#699DEE"/>
<path d="M235.652 236.926H214.72C214.284 236.926 213.928 236.568 213.928 236.132C213.928 235.696 214.284 235.338 214.72 235.338H235.652C236.088 235.338 236.446 235.696 236.446 236.132C236.446 236.568 236.088 236.926 235.652 236.926Z" fill="#699DEE"/>
<path d="M210.496 244.434H194.533C194.096 244.434 193.739 244.078 193.739 243.642C193.739 243.206 194.096 242.848 194.533 242.848H210.496C210.932 242.848 211.29 243.206 211.29 243.642C211.29 244.078 210.932 244.434 210.496 244.434Z" fill="#699DEE"/>
<path d="M235.652 244.434H214.72C214.284 244.434 213.928 244.078 213.928 243.642C213.928 243.206 214.284 242.848 214.72 242.848H235.652C236.088 242.848 236.446 243.206 236.446 243.642C236.446 244.078 236.088 244.434 235.652 244.434Z" fill="#699DEE"/>
<path d="M225.5 230.694H214.306C213.842 230.694 213.464 230.316 213.464 229.852V229.102C213.464 228.64 213.842 228.26 214.306 228.26H225.5C225.962 228.26 226.342 228.64 226.342 229.102V229.852C226.342 230.316 225.962 230.694 225.5 230.694Z" fill="#699DEE"/>
<path d="M220.646 79.1299H205.062C204.52 79.1299 204.078 78.6859 204.078 78.1459V77.6779C204.078 77.1379 204.52 76.6959 205.062 76.6959H220.646C221.188 76.6959 221.63 77.1379 221.63 77.6779V78.1459C221.63 78.6859 221.188 79.1299 220.646 79.1299Z" fill="#699DEE"/>
<path d="M220.836 85.3604H204.872C204.436 85.3604 204.078 85.0023 204.078 84.5663C204.078 84.1303 204.436 83.7723 204.872 83.7723H220.836C221.272 83.7723 221.63 84.1303 221.63 84.5663C221.63 85.0023 221.272 85.3604 220.836 85.3604Z" fill="#699DEE"/>
<path d="M213.768 89.1143H204.686C204.352 89.1143 204.078 88.8422 204.078 88.5062V88.1362C204.078 87.8022 204.352 87.5283 204.686 87.5283H213.768C214.102 87.5283 214.376 87.8022 214.376 88.1362V88.5062C214.376 88.8422 214.102 89.1143 213.768 89.1143Z" fill="#699DEE"/>
<path d="M232.28 89.1143H217.602C217.184 89.1143 216.84 88.7722 216.84 88.3522V88.2903C216.84 87.8703 217.184 87.5283 217.602 87.5283H232.28C232.698 87.5283 233.042 87.8703 233.042 88.2903V88.3522C233.042 88.7722 232.698 89.1143 232.28 89.1143Z" fill="#699DEE"/>
<path d="M245.992 85.3604H225.06C224.624 85.3604 224.266 85.0023 224.266 84.5663C224.266 84.1303 224.624 83.7723 225.06 83.7723H245.992C246.428 83.7723 246.784 84.1303 246.784 84.5663C246.784 85.0023 246.428 85.3604 245.992 85.3604Z" fill="#699DEE"/>
<path d="M235.838 79.1299H224.644C224.182 79.1299 223.804 78.7499 223.804 78.2879V77.5359C223.804 77.0739 224.182 76.6959 224.644 76.6959H235.838C236.302 76.6959 236.68 77.0739 236.68 77.5359V78.2879C236.68 78.7499 236.302 79.1299 235.838 79.1299Z" fill="#699DEE"/>
<path d="M234.14 184.372H217.076C216.484 184.372 216 183.888 216 183.296V182.784C216 182.192 216.484 181.708 217.076 181.708H234.14C234.73 181.708 235.214 182.192 235.214 182.784V183.296C235.214 183.888 234.73 184.372 234.14 184.372Z" fill="#629232"/>
<path d="M234.346 188H216.868C216.39 188 216 187.608 216 187.13C216 186.652 216.39 186.262 216.868 186.262H234.346C234.824 186.262 235.214 186.652 235.214 187.13C235.214 187.608 234.824 188 234.346 188Z" fill="#629232"/>
<path d="M230.608 192H220.666C220.3 192 220 191.7 220 191.334V190.928C220 190.562 220.3 190.264 220.666 190.264H230.608C230.974 190.264 231.274 190.562 231.274 190.928V191.334C231.274 191.7 230.974 192 230.608 192Z" fill="#629232"/>
<path d="M254.902 188H238.834C238.376 188 238 187.624 238 187.166V187.098C238 186.638 238.376 186.264 238.834 186.264H254.902C255.362 186.264 255.736 186.638 255.736 187.098V187.166C255.736 187.624 255.362 188 254.902 188Z" fill="#629232"/>
<path d="M234.346 196H216.868C216.39 196 216 195.61 216 195.132C216 194.654 216.39 194.264 216.868 194.264H234.346C234.824 194.264 235.214 194.654 235.214 195.132C235.214 195.61 234.824 196 234.346 196Z" fill="#629232"/>
<path d="M257.784 192H234.868C234.39 192 234 191.61 234 191.132C234 190.654 234.39 190.264 234.868 190.264H257.784C258.262 190.264 258.652 190.654 258.652 191.132C258.652 191.61 258.262 192 257.784 192Z" fill="#629232"/>
<path d="M234.346 200H216.868C216.39 200 216 199.61 216 199.132C216 198.654 216.39 198.264 216.868 198.264H234.346C234.824 198.264 235.214 198.654 235.214 199.132C235.214 199.61 234.824 200 234.346 200Z" fill="#629232"/>
<path d="M257.784 196H234.868C234.39 196 234 195.61 234 195.132C234 194.654 234.39 194.264 234.868 194.264H257.784C258.262 194.264 258.652 194.654 258.652 195.132C258.652 195.61 258.262 196 257.784 196Z" fill="#629232"/>
<path d="M251.054 184.372H238.8C238.292 184.372 237.878 183.958 237.878 183.45V182.628C237.878 182.122 238.292 181.708 238.8 181.708H251.054C251.562 181.708 251.976 182.122 251.976 182.628V183.45C251.976 183.958 251.562 184.372 251.054 184.372Z" fill="#629232"/>
<path d="M194.004 66.4673L192.818 67.3193L191.626 66.4773C191.891 66.1054 192.327 65.8593 192.818 65.8593C193.307 65.8593 193.74 66.0994 194.004 66.4673Z" fill="white"/>
<path d="M192.818 63.7865C191.626 63.7865 190.572 64.3805 189.934 65.2865L190.686 65.8145C191.16 65.1445 191.94 64.7085 192.818 64.7085C193.69 64.7085 194.466 65.1385 194.938 65.7985L195.688 65.2605C195.046 64.3665 193.998 63.7865 192.818 63.7865Z" fill="white"/>
<path d="M192.817 59.844C190.296 59.844 188.065 61.098 186.713 63.016L187.467 63.5439C188.651 61.866 190.609 60.766 192.817 60.766C195.007 60.766 196.954 61.848 198.141 63.5039L198.887 62.966C197.533 61.076 195.319 59.844 192.817 59.844Z" fill="white"/>
<path d="M192.817 62.0023C191.023 62.0023 189.433 62.8903 188.465 64.2503L189.217 64.7783C190.019 63.6583 191.333 62.9243 192.817 62.9243C194.289 62.9243 195.596 63.6463 196.399 64.7503L197.146 64.2163C196.175 62.8743 194.597 62.0023 192.817 62.0023Z" fill="white"/>
<path d="M186.16 192.076C186.16 193.818 186.746 195.42 187.733 196.7C188.061 197.126 188.434 197.514 188.842 197.86C189.248 198.204 189.69 198.506 190.162 198.76C191.228 199.332 192.444 199.656 193.739 199.656C195.356 199.656 196.853 199.15 198.083 198.288C198.146 198.246 198.207 198.2 198.267 198.156C198.824 197.74 199.322 197.252 199.746 196.7C200.734 195.42 201.32 193.818 201.32 192.076C201.32 187.892 197.926 184.498 193.739 184.498C189.553 184.498 186.16 187.892 186.16 192.076" fill="white"/>
<path d="M195.792 196.938L195.093 196.32C195.035 196.332 194.978 196.342 194.92 196.352C194.794 196.264 194.655 196.178 194.512 196.098C194.557 195.816 194.596 195.554 194.627 195.322C194.733 194.51 194.746 194.02 194.746 193.944C195.115 193.926 195.366 193.886 195.366 193.886C196.066 193.724 196.099 191.334 195.937 190.088C196.069 190.09 196.197 190.072 196.327 190.014C196.857 189.78 196.887 188.978 196.887 188.978C196.887 188.978 196.733 189.264 196.507 189.356C196.507 189.356 197.394 188.142 196.366 187.312C195.342 186.48 194.296 187.024 193.7 187.06C192.391 187.14 191.546 187.218 191.119 188.078C190.697 188.926 190.863 191.258 191.671 192.116C191.685 192.196 191.699 192.274 191.709 192.354C191.757 192.662 191.869 192.914 192.029 193.116C191.847 194.12 191.433 194.87 191.062 195.368C190.809 195.564 190.579 195.816 190.365 196.118C190.359 196.122 190.351 196.128 190.351 196.128C190.351 196.128 190.354 196.128 190.357 196.13C189.963 196.69 189.639 197.42 189.379 198.276C189.377 198.28 189.377 198.284 189.375 198.288C189.804 198.59 190.267 198.844 190.757 199.048C190.789 199.062 190.821 199.074 190.854 199.088C190.862 199.09 190.867 199.094 190.875 199.096C190.927 199.118 190.981 199.138 191.033 199.158C191.162 199.208 191.289 199.254 191.419 199.296C191.555 199.34 191.693 199.38 191.831 199.416C191.896 199.432 191.959 199.448 192.023 199.462C192.079 199.476 192.135 199.488 192.193 199.498C192.201 199.5 192.209 199.502 192.217 199.504C192.255 199.512 192.293 199.518 192.331 199.526C192.419 199.542 192.51 199.558 192.6 199.572C192.62 199.574 192.641 199.578 192.662 199.58C192.712 199.588 192.76 199.594 192.81 199.6C192.88 199.608 192.95 199.616 193.02 199.624C193.098 199.632 193.177 199.638 193.257 199.642C193.331 199.648 193.407 199.652 193.483 199.654C193.562 199.656 193.641 199.658 193.721 199.658C193.807 199.658 193.891 199.656 193.977 199.654C193.985 199.654 193.992 199.654 194 199.652C194.02 199.652 194.041 199.652 194.062 199.65C194.104 199.65 194.146 199.648 194.187 199.644C194.193 199.642 194.198 199.642 194.204 199.642C194.284 199.638 194.362 199.632 194.441 199.624C195.466 199.528 196.431 199.224 197.298 198.76C196.857 198.006 196.31 197.418 195.792 196.938" fill="#699DEE"/>
<path d="M260.576 236.132C260.576 237.884 261.166 239.498 262.16 240.786C262.49 241.214 262.864 241.606 263.276 241.954C264.606 243.082 266.328 243.762 268.208 243.762C269.916 243.762 271.494 243.202 272.766 242.252C273.326 241.834 273.828 241.34 274.254 240.786C275.248 239.498 275.838 237.884 275.838 236.132C275.838 231.916 272.422 228.5 268.208 228.5C263.992 228.5 260.576 231.916 260.576 236.132" fill="white"/>
<path d="M272.108 240.456C272.098 240.436 272.086 240.416 272.07 240.398C272.04 240.354 271.998 240.312 271.948 240.272L271.946 240.27C271.85 240.192 271.72 240.122 271.57 240.06C271.564 240.058 271.56 240.056 271.554 240.054C270.892 239.764 270.022 239.67 270.022 239.67C269.774 239.632 269.578 239.608 269.486 239.598C269.23 239.392 268.886 238.574 268.83 237.32L268.832 237.324C268.832 237.324 269.118 236.66 269.496 236.868C270.086 237.19 271.226 235.886 270.862 234.172C270.822 233.988 270.774 233.818 270.722 233.664C270.846 233.716 270.984 233.76 271.114 233.76C271.456 233.76 271.974 232.884 272.044 232.59C272.116 232.296 272.038 231.33 271.568 231.044C271.11 230.762 270.384 231.086 270.352 231.098C270.586 230.77 271.386 230.836 271.532 230.852C269.664 230.464 269.278 231.662 269.246 231.77C268.058 230.696 266.244 232.552 265.798 233.048C265.768 233.074 265.738 233.102 265.708 233.132C265.606 233.19 265.492 233.288 265.372 233.432C265.138 233.716 265.064 234.078 265.064 234.424C265.064 235.04 265.3 235.61 265.3 235.61C265.408 236.648 265.708 237.934 266.188 237.972C266.188 237.972 266.358 237.974 266.614 237.952C266.614 237.964 266.616 237.974 266.616 237.986C266.624 238.16 266.63 238.356 266.632 238.552V238.67C266.634 239.192 266.602 239.688 266.484 239.75C266.444 239.754 266.41 239.756 266.38 239.76C266.332 239.762 266.242 239.774 266.242 239.774C265.826 239.828 265.53 239.87 265.32 239.906C264.904 239.976 264.8 240.026 264.698 240.106C264.674 240.128 264.65 240.154 264.626 240.182C264.322 240.412 263.764 240.936 263.276 241.954C264.606 243.082 266.328 243.762 268.208 243.762C269.918 243.762 271.494 243.202 272.766 242.252C272.552 241.51 272.33 240.876 272.108 240.456" fill="#6EA239"/>
<path d="M260.576 82.7577C260.576 84.5097 261.166 86.1237 262.16 87.4137C262.49 87.8417 262.864 88.2316 263.276 88.5816C264.606 89.7096 266.328 90.3896 268.208 90.3896C269.916 90.3896 271.494 89.8277 272.766 88.8777C273.326 88.4617 273.828 87.9677 274.254 87.4137C275.248 86.1237 275.838 84.5097 275.838 82.7577C275.838 78.5437 272.422 75.1277 268.208 75.1277C263.992 75.1277 260.576 78.5437 260.576 82.7577" fill="white"/>
<path d="M272.108 87.0816C272.098 87.0616 272.086 87.0437 272.07 87.0237C272.04 86.9797 271.998 86.9377 271.948 86.8977L271.946 86.8956C271.85 86.8196 271.72 86.7496 271.57 86.6856C271.564 86.6836 271.56 86.6817 271.554 86.6797C270.892 86.3917 270.022 86.2957 270.022 86.2957V86.2977C269.774 86.2577 269.578 86.2337 269.486 86.2237C269.424 86.1737 269.358 86.0917 269.292 85.9737V85.9716C269.08 85.5996 268.872 84.8997 268.83 83.9457L268.832 83.9497C268.832 83.9497 269.118 83.2877 269.496 83.4937C270.086 83.8157 271.226 82.5137 270.862 80.7997C270.822 80.6137 270.774 80.4437 270.722 80.2897C270.846 80.3417 270.984 80.3857 271.114 80.3857C271.456 80.3857 271.974 79.5097 272.044 79.2177C272.116 78.9217 272.038 77.9557 271.568 77.6697C271.11 77.3897 270.384 77.7117 270.352 77.7257C270.586 77.3977 271.388 77.4637 271.532 77.4777C269.664 77.0897 269.278 78.2897 269.246 78.3957C268.058 77.3237 266.244 79.1797 265.798 79.6737C265.768 79.6997 265.738 79.7277 265.708 79.7577C265.606 79.8177 265.492 79.9137 265.372 80.0597C265.138 80.3417 265.064 80.7037 265.064 81.0497C265.064 81.6677 265.3 82.2357 265.3 82.2357C265.408 83.2757 265.708 84.5597 266.188 84.5977C266.188 84.5977 266.358 84.5997 266.614 84.5797C266.614 84.5897 266.616 84.5996 266.616 84.6116C266.624 84.7856 266.63 84.9817 266.632 85.1797V85.2977C266.634 85.8197 266.602 86.3137 266.484 86.3777C266.444 86.3797 266.41 86.3837 266.38 86.3857C266.332 86.3897 266.242 86.3997 266.242 86.3997C265.826 86.4537 265.53 86.4956 265.32 86.5316C264.904 86.6036 264.8 86.6516 264.698 86.7316C264.674 86.7556 264.65 86.7817 264.626 86.8077C264.322 87.0377 263.764 87.5636 263.276 88.5816C263.348 88.6436 263.422 88.7036 263.498 88.7616C263.51 88.7716 263.524 88.7816 263.536 88.7916C263.592 88.8356 263.648 88.8777 263.706 88.9177C263.746 88.9497 263.786 88.9797 263.828 89.0077C263.87 89.0377 263.912 89.0656 263.954 89.0916C264.014 89.1356 264.076 89.1757 264.14 89.2137C264.182 89.2417 264.224 89.2677 264.268 89.2937C264.32 89.3257 264.374 89.3577 264.428 89.3877C264.488 89.4217 264.548 89.4557 264.608 89.4877C264.614 89.4897 264.618 89.4936 264.624 89.4956C264.626 89.4976 264.63 89.4996 264.634 89.5016H264.636C264.644 89.5056 264.654 89.5116 264.662 89.5156C264.71 89.5416 264.758 89.5656 264.806 89.5896C264.81 89.5896 264.812 89.5917 264.816 89.5937C264.83 89.6017 264.846 89.6096 264.86 89.6156C264.886 89.6296 264.914 89.6436 264.942 89.6556C264.968 89.6676 264.994 89.6797 265.022 89.6937C265.082 89.7217 265.146 89.7496 265.208 89.7756C265.27 89.8016 265.334 89.8276 265.396 89.8516C265.426 89.8636 265.454 89.8756 265.482 89.8856C265.51 89.8956 265.538 89.9077 265.568 89.9177C265.626 89.9397 265.686 89.9596 265.744 89.9796C265.806 90.0016 265.866 90.0196 265.928 90.0396C265.98 90.0556 266.032 90.0717 266.084 90.0877C266.09 90.0897 266.094 90.0896 266.1 90.0916C266.132 90.1016 266.166 90.1116 266.2 90.1196C266.382 90.1696 266.568 90.2136 266.756 90.2496C266.838 90.2656 266.92 90.2817 267.002 90.2937C267.024 90.2977 267.044 90.3017 267.066 90.3037C267.07 90.3037 267.076 90.3056 267.08 90.3056C267.082 90.3056 267.086 90.3057 267.088 90.3077C267.142 90.3157 267.192 90.3217 267.248 90.3277C267.26 90.3297 267.27 90.3316 267.282 90.3316C267.29 90.3336 267.298 90.3336 267.306 90.3356C267.356 90.3436 267.406 90.3476 267.454 90.3516C267.462 90.3516 267.472 90.3537 267.48 90.3537C267.494 90.3557 267.51 90.3576 267.526 90.3596C267.616 90.3676 267.704 90.3737 267.794 90.3777H267.808C267.836 90.3797 267.862 90.3816 267.892 90.3816C267.91 90.3816 267.926 90.3837 267.944 90.3837C268.032 90.3877 268.12 90.3896 268.208 90.3896C269.918 90.3896 271.494 89.8277 272.766 88.8777C272.552 88.1357 272.33 87.5036 272.108 87.0816" fill="#6EA239"/>
<path d="M364.134 385.77L336.648 400H318.35C313.938 397.042 291.024 381.412 281.542 369.76C279.534 367.29 272.184 346.01 266.536 328.732V328.724C267.286 331.018 283.048 364.588 287.536 368.404C292.024 372.218 315.588 394.436 322.096 394.21C328.4 393.994 361.96 386.27 364.04 385.792C364.072 385.786 364.102 385.778 364.134 385.77" fill="#EFA26F"/>
<path d="M419.438 400H320.346C325.316 398.05 344.33 390.786 364.04 385.792C364.072 385.786 364.102 385.778 364.134 385.77C381.062 381.488 398.488 378.892 407.952 382.786L408.02 382.888L419.438 400Z" fill="#D2E3FC"/>
<path d="M259.796 269.114C259.798 269.114 259.8 269.114 259.804 269.11C261.472 268.498 263.818 268.094 264.958 270C266.734 272.964 260.138 299.116 259.314 302.406L259.796 269.114" fill="#EFA26F"/>
<path d="M260.308 255.052L259.742 270.87C259.742 270.87 263.068 271.412 264.958 270C266.85 268.588 265.848 254.866 260.308 255.052Z" fill="#FFC197"/>
<path d="M193.74 346.652C184.218 348.606 163.696 341.126 163.696 341.126L167.006 309.154L143.815 335.712C132.013 331.32 113.555 319.86 102.588 312.728C130.691 309.664 151.674 281.93 151.674 281.93C171.155 292.482 193.146 298.646 193.146 298.646C193.139 317.648 193.74 346.652 193.74 346.652" fill="#CBE1FD"/>
<path d="M128.397 317.613C128.417 315.481 130.161 313.769 132.293 313.789C134.425 313.809 136.137 315.553 136.117 317.685C136.097 319.817 134.353 321.529 132.222 321.509C130.09 321.489 128.378 319.745 128.397 317.613Z" fill="#6EA239"/>
</svg>
