<svg version="1.2" baseProfile="tiny-ps" xmlns="http://www.w3.org/2000/svg" viewBox="0 0 28 22" width="28" height="22">
	<title>welcome book</title>
	<style>
		tspan { white-space:pre }
		.shp0 { fill: #225dd9 } 
	</style>
	<g id="welcome book">
		<g id="envelope">
			<g id="Group 29">
				<path id="Path 48" fill-rule="evenodd" class="shp0" d="M27.5 4.24L27.5 18.44C27.5 20.29 25.99 21.8 24.13 21.8L3.36 21.8C1.51 21.8 0 20.29 0 18.44L0 4.24C0 2.38 1.51 0.87 3.36 0.87L24.14 0.87C26 0.87 27.5 2.39 27.5 4.24ZM25.96 18.44L25.96 4.24C25.96 3.24 25.14 2.42 24.13 2.42L3.36 2.42C2.36 2.42 1.54 3.24 1.54 4.24L1.54 18.44C1.54 19.44 2.36 20.26 3.36 20.26L24.14 20.26C25.15 20.26 25.97 19.44 25.97 18.44L25.96 18.44Z" />
			</g>
		</g>
	</g>
</svg>