<svg version="1.2" baseProfile="tiny-ps" xmlns="http://www.w3.org/2000/svg" viewBox="0 0 22 16" width="22" height="16">
	<title>welcome book</title>
	<style>
		tspan { white-space:pre }
		.shp0 { fill: #225dd9 } 
	</style>
	<g id="welcome book">
		<g id="envelope">
			<g id="Group 29">
				<path id="Path 49" class="shp0" d="M14.34 8.16L21.07 2.13C21.38 1.85 21.41 1.36 21.12 1.04C20.84 0.73 20.36 0.7 20.04 0.99L10.76 9.31L8.95 7.69C8.95 7.69 8.94 7.68 8.94 7.68C8.9 7.64 8.86 7.6 8.82 7.57L1.45 0.98C1.14 0.7 0.65 0.72 0.37 1.04C0.08 1.36 0.11 1.85 0.43 2.13L7.24 8.21L0.46 14.56C0.15 14.85 0.13 15.33 0.42 15.64C0.58 15.8 0.78 15.89 0.99 15.89C1.18 15.89 1.36 15.82 1.51 15.68L8.39 9.25L10.26 10.91C10.4 11.05 10.59 11.11 10.77 11.11C10.95 11.11 11.14 11.04 11.28 10.91L13.2 9.19L20.04 15.69C20.18 15.83 20.38 15.9 20.57 15.9C20.77 15.9 20.97 15.82 21.12 15.66C21.41 15.35 21.4 14.86 21.09 14.57L14.34 8.16Z" />
			</g>
		</g>
	</g>
</svg>